<svg width="21" height="20" viewBox="0 0 21 20" fill="none" xmlns="http://www.w3.org/2000/svg">
<path d="M10.2363 1.83333C12.903 1.83333 13.2363 1.83333 14.3197 1.91667C17.0697 2 18.3197 3.33333 18.403 6C18.4863 7.08333 18.4863 7.33333 18.4863 10C18.4863 12.6667 18.4863 13 18.403 14C18.3197 16.6667 16.9863 18 14.3197 18.0833C13.2363 18.1667 12.9863 18.1667 10.2363 18.1667C7.56966 18.1667 7.23633 18.1667 6.23633 18.0833C3.48633 18 2.23633 16.6667 2.15299 14C2.06966 12.9167 2.06966 12.6667 2.06966 10C2.06966 7.33333 2.06966 7 2.15299 6C2.23633 3.33333 3.56966 2 6.23633 1.91667C7.23633 1.83333 7.56966 1.83333 10.2363 1.83333ZM10.2363 0C7.48633 0 7.15299 0 6.15299 0.0833333C2.48633 0.25 0.486328 2.25 0.319661 5.91667C0.236328 6.91667 0.236328 7.25 0.236328 10C0.236328 12.75 0.236328 13.0833 0.319661 14.0833C0.486328 17.75 2.48633 19.75 6.15299 19.9167C7.15299 20 7.48633 20 10.2363 20C12.9863 20 13.3197 20 14.3197 19.9167C17.9863 19.75 19.9863 17.75 20.153 14.0833C20.2363 13.0833 20.2363 12.75 20.2363 10C20.2363 7.25 20.2363 6.91667 20.153 5.91667C19.9863 2.25 17.9863 0.25 14.3197 0.0833333C13.3197 0 12.9863 0 10.2363 0ZM10.2363 4.83333C7.40299 4.83333 5.06966 7.16667 5.06966 10C5.06966 12.8333 7.40299 15.1667 10.2363 15.1667C13.0697 15.1667 15.403 12.8333 15.403 10C15.403 7.16667 13.0697 4.83333 10.2363 4.83333ZM10.2363 13.3333C8.40299 13.3333 6.90299 11.8333 6.90299 10C6.90299 8.16667 8.40299 6.66667 10.2363 6.66667C12.0697 6.66667 13.5697 8.16667 13.5697 10C13.5697 11.8333 12.0697 13.3333 10.2363 13.3333ZM15.5697 3.5C14.903 3.5 14.403 4 14.403 4.66667C14.403 5.33333 14.903 5.83333 15.5697 5.83333C16.2363 5.83333 16.7363 5.33333 16.7363 4.66667C16.7363 4 16.2363 3.5 15.5697 3.5Z" fill="#EEEAE1"/>
</svg>
