<svg width="12" height="13" viewBox="0 0 12 13" fill="none" xmlns="http://www.w3.org/2000/svg">
<g clip-path="url(#clip0_188_51)">
<path fill-rule="evenodd" clip-rule="evenodd" d="M4.19997 0.599753C4.19997 0.268548 3.93151 -0.0001701 3.60005 -0.0001701C3.26859 -0.0001701 2.99987 0.268291 2.99987 0.599753V0.903443C2.70235 0.908072 2.43801 0.918615 2.20503 0.943043C1.77328 0.988301 1.38216 1.0855 1.03399 1.32645C0.79664 1.49077 0.590666 1.69674 0.426349 1.93409C0.18566 2.28201 0.0882013 2.67338 0.0432006 3.10487C0.00360005 3.48417 0.000257147 3.94677 0 4.49989V8.14238C0 8.9547 0 9.62483 0.0712296 10.1551C0.146059 10.7118 0.309347 11.2034 0.703039 11.5971C1.09673 11.9908 1.58839 12.1541 2.14512 12.2289C2.67535 12.3002 3.34548 12.3002 4.1578 12.3002H7.84246C8.65504 12.3002 9.32491 12.3002 9.85514 12.2289C10.4119 12.1541 10.9035 11.9908 11.2972 11.5971C11.6909 11.2034 11.8542 10.7118 11.929 10.1551C12.0003 9.62483 12.0003 8.9547 12.0003 8.14238V4.49989C12 3.94677 11.9967 3.48417 11.9571 3.10487C11.9121 2.67313 11.8146 2.28201 11.5737 1.93383C11.4093 1.69648 11.2034 1.49051 10.966 1.32619C10.6181 1.08525 10.2267 0.988044 9.79497 0.942786C9.56199 0.918357 9.29765 0.907814 9.00013 0.903186V0.599496C9.00013 0.268034 8.73141 -0.000427246 8.39995 -0.000427246C8.06849 -0.000427246 7.80003 0.268034 7.80003 0.599496V0.899586H4.19997V0.599496V0.599753ZM10.7999 4.49989C10.7994 3.93803 10.7958 3.54048 10.7631 3.22959C10.7282 2.89581 10.6657 2.73098 10.5865 2.61681C10.5042 2.49827 10.4013 2.39515 10.2828 2.31312C10.1686 2.23418 10.0038 2.17143 9.67 2.13646C9.48356 2.11692 9.26576 2.10792 8.99987 2.10355V2.39978C8.99987 2.73124 8.73115 2.99996 8.39969 2.99996C8.06823 2.99996 7.79977 2.73124 7.79977 2.39978V2.09995H4.19997V2.39978C4.19997 2.73124 3.93126 2.99996 3.60005 2.99996C3.26885 2.99996 2.99987 2.73124 2.99987 2.39978V2.10355C2.73398 2.10792 2.51644 2.11692 2.32975 2.13646C1.99597 2.17143 1.83114 2.23392 1.71697 2.31312C1.59817 2.39541 1.49531 2.49827 1.41328 2.61681C1.33433 2.73124 1.27159 2.89581 1.23662 3.22959C1.20422 3.54048 1.20036 3.93777 1.19985 4.49989H10.7999ZM1.19985 5.7V8.09995C1.19985 8.9655 1.20113 9.55411 1.26053 9.99512C1.31736 10.4189 1.41791 10.6151 1.55137 10.7486C1.68508 10.8823 1.88103 10.9826 2.3048 11.0396C2.74581 11.0988 3.33442 11.1003 4.19997 11.1003H7.80003C8.66558 11.1003 9.25419 11.099 9.6952 11.0396C10.119 10.9828 10.3149 10.8823 10.4486 10.7486C10.5824 10.6151 10.6826 10.4189 10.7397 9.99512C10.7989 9.55437 10.8004 8.9655 10.8004 8.09995V5.7H1.19985Z" fill="#010328"/>
</g>
<defs>
<clipPath id="clip0_188_51">
<rect width="12" height="12.3003" fill="white"/>
</clipPath>
</defs>
</svg>
