<svg width="71" height="72" viewBox="0 0 71 72" fill="none" xmlns="http://www.w3.org/2000/svg">
<path d="M57.493 64.2241C65.5138 57.6195 71 47.2734 71 36.0163C71 16.1374 55.0547 0 35.484 0C15.9132 0 0 16.1374 0 35.9837C0 47.3385 5.48622 57.6846 13.6033 64.2892C19.6028 68.9742 27.3669 72 35.516 72C43.6652 72 51.5255 68.9092 57.493 64.2241ZM16.6512 62.4347V46.9155L35.8369 31.5264L54.5734 46.883V62.3046C49.2476 66.3064 42.6385 68.6489 35.516 68.6489C28.3936 68.6489 21.9449 66.3389 16.6512 62.4347ZM57.8459 59.474V45.2887L35.8369 27.2318L13.3466 45.2562V59.6367C7.15454 53.6828 3.30456 45.2887 3.30456 35.9837C3.30456 17.9919 17.742 3.35111 35.484 3.35111C53.2259 3.35111 67.6954 17.9919 67.6954 36.0163C67.6954 45.2237 63.9096 53.5526 57.8459 59.5066V59.474Z" fill="black"/>
</svg>
