<svg width="18" height="14" viewBox="0 0 18 14" fill="none" xmlns="http://www.w3.org/2000/svg">
<path fill-rule="evenodd" clip-rule="evenodd" d="M15.8488 1.24077C15.2901 0.907928 14.6372 0.756714 13.9315 0.70212C11.5837 0.506846 6.44149 0.506845 4.09366 0.702119C3.38794 0.756713 2.73508 0.907927 2.17643 1.24077C1.59589 1.58666 1.19404 2.08255 0.926816 2.68788C0.67012 3.26938 0.538614 3.94854 0.46545 4.68973C0.391755 5.43629 0.37207 6.30852 0.37207 7.30197C0.37207 8.29543 0.391755 9.16766 0.46545 9.91422C0.538614 10.6554 0.67012 11.3346 0.926816 11.9161C1.19404 12.5214 1.59589 13.0173 2.17643 13.3632C2.73594 13.6965 3.38994 13.8477 4.0969 13.9021L4.10751 13.9029L4.11813 13.9035C6.44653 14.0328 11.5748 14.0329 13.9049 13.9036C14.6166 13.8669 15.2773 13.7261 15.8437 13.393C16.4312 13.0476 16.8337 12.545 17.0997 11.9369C17.3555 11.3522 17.4868 10.6678 17.5598 9.92248C17.6334 9.1714 17.6531 8.29557 17.6531 7.30197C17.6531 6.30852 17.6334 5.43629 17.5597 4.68973C17.4866 3.94854 17.3551 3.26938 17.0984 2.68788C16.8312 2.08255 16.4293 1.58666 15.8488 1.24077ZM4.25664 2.69547C6.49353 2.50906 11.5317 2.50906 13.7685 2.69547L13.7685 2.69549L13.7749 2.69598C14.3095 2.7371 14.6265 2.84062 14.8251 2.95893C15.0026 3.06471 15.146 3.21747 15.2687 3.49557C15.402 3.79751 15.5053 4.23657 15.5694 4.8862C15.633 5.53045 15.6531 6.32163 15.6531 7.30197C15.6531 8.28218 15.633 9.07772 15.5693 9.7274C15.5051 10.3828 15.4015 10.8286 15.2674 11.1353C15.1434 11.4186 15.0007 11.5686 14.8301 11.6689C14.6391 11.7812 14.3295 11.8792 13.8004 11.9063L13.8004 11.9063L13.7961 11.9066C11.5446 12.0316 6.50064 12.0319 4.24005 11.9072C3.71161 11.8655 3.39742 11.7626 3.20011 11.645C3.02257 11.5392 2.87924 11.3865 2.75647 11.1084C2.62318 10.8064 2.5199 10.3674 2.45578 9.71775C2.39218 9.0735 2.37207 8.28232 2.37207 7.30197C2.37207 6.32163 2.39218 5.53045 2.45578 4.8862C2.5199 4.23657 2.62318 3.79751 2.75647 3.49557C2.87924 3.21747 3.02257 3.06471 3.20011 2.95893C3.39869 2.84062 3.71567 2.7371 4.25029 2.69598L4.25029 2.696L4.25664 2.69547ZM8.68919 9.05187C7.9578 9.41756 7.09725 8.88572 7.09725 8.068V6.53399C7.09725 5.71627 7.9578 5.18442 8.68919 5.55012L10.2232 6.31712C11.034 6.7225 11.034 7.87949 10.2232 8.28486L8.68919 9.05187Z" fill="black"/>
</svg>
