<svg width="8" height="11" viewBox="0 0 8 11" fill="none" xmlns="http://www.w3.org/2000/svg">
<g clip-path="url(#clip0_188_48)">
<path fill-rule="evenodd" clip-rule="evenodd" d="M4.0001 0C6.20953 0 8 1.79047 8 3.9999C8 5.74379 6.63437 7.42208 5.70107 8.82477L4.40712 10.7681C4.31397 10.9091 4.16838 10.9866 4.0001 10.9866C3.83183 10.9866 3.68623 10.9091 3.59308 10.7681L2.29914 8.82477C1.36563 7.42228 0 5.74399 0 3.9999C0 1.79047 1.79047 0 4.0001 0ZM4.0001 1.69732C2.70372 1.69732 1.65338 2.74787 1.65338 4.04404C1.65338 5.34022 2.70393 6.39077 4.0001 6.39077C5.29628 6.39077 6.34682 5.34022 6.34682 4.04404C6.34682 2.74787 5.29526 1.69732 4.0001 1.69732Z" fill="#010328"/>
</g>
<defs>
<clipPath id="clip0_188_48">
<rect width="8" height="10.9866" fill="white"/>
</clipPath>
</defs>
</svg>
