<svg width="17" height="16" viewBox="0 0 17 16" fill="none" xmlns="http://www.w3.org/2000/svg">
<path d="M8.78906 1.46667C10.9224 1.46667 11.1891 1.46667 12.0557 1.53333C14.2557 1.6 15.2557 2.66667 15.3224 4.8C15.3891 5.66667 15.3891 5.86667 15.3891 8C15.3891 10.1333 15.3891 10.4 15.3224 11.2C15.2557 13.3333 14.1891 14.4 12.0557 14.4667C11.1891 14.5333 10.9891 14.5333 8.78906 14.5333C6.65573 14.5333 6.38906 14.5333 5.58906 14.4667C3.38906 14.4 2.38906 13.3333 2.3224 11.2C2.25573 10.3333 2.25573 10.1333 2.25573 8C2.25573 5.86667 2.25573 5.6 2.3224 4.8C2.38906 2.66667 3.45573 1.6 5.58906 1.53333C6.38906 1.46667 6.65573 1.46667 8.78906 1.46667ZM8.78906 0C6.58906 0 6.3224 0 5.5224 0.0666667C2.58906 0.2 0.989063 1.8 0.855729 4.73333C0.789062 5.53333 0.789062 5.8 0.789062 8C0.789062 10.2 0.789062 10.4667 0.855729 11.2667C0.989063 14.2 2.58906 15.8 5.5224 15.9333C6.3224 16 6.58906 16 8.78906 16C10.9891 16 11.2557 16 12.0557 15.9333C14.9891 15.8 16.5891 14.2 16.7224 11.2667C16.7891 10.4667 16.7891 10.2 16.7891 8C16.7891 5.8 16.7891 5.53333 16.7224 4.73333C16.5891 1.8 14.9891 0.2 12.0557 0.0666667C11.2557 0 10.9891 0 8.78906 0ZM8.78906 3.86667C6.5224 3.86667 4.65573 5.73333 4.65573 8C4.65573 10.2667 6.5224 12.1333 8.78906 12.1333C11.0557 12.1333 12.9224 10.2667 12.9224 8C12.9224 5.73333 11.0557 3.86667 8.78906 3.86667ZM8.78906 10.6667C7.3224 10.6667 6.1224 9.46667 6.1224 8C6.1224 6.53333 7.3224 5.33333 8.78906 5.33333C10.2557 5.33333 11.4557 6.53333 11.4557 8C11.4557 9.46667 10.2557 10.6667 8.78906 10.6667ZM13.0557 2.8C12.5224 2.8 12.1224 3.2 12.1224 3.73333C12.1224 4.26667 12.5224 4.66667 13.0557 4.66667C13.5891 4.66667 13.9891 4.26667 13.9891 3.73333C13.9891 3.2 13.5891 2.8 13.0557 2.8Z" fill="black"/>
</svg>
