<svg width="120" height="33" viewBox="0 0 120 33" fill="none" xmlns="http://www.w3.org/2000/svg">
<path d="M46.2432 13.8748C44.3263 13.8748 42.9916 12.7227 42.7505 12.5069C42.781 12.4668 42.8145 12.4248 42.8526 12.3771L42.8552 12.3738C42.8997 12.3181 42.9509 12.254 42.9994 12.1884C43.1613 12.334 43.4975 12.6204 43.949 12.8963C44.5374 13.2559 45.3633 13.6243 46.301 13.6243C47.9891 13.6243 49.2303 12.5179 49.2303 11.0941C49.2303 10.2802 48.8722 9.64222 48.2517 9.10937C47.6556 8.59747 46.7987 8.16496 45.7473 7.72212C44.7567 7.2837 44.0412 6.88694 43.5668 6.3836C43.116 5.9053 42.8534 5.29782 42.8534 4.35611C42.8534 3.84727 43.0581 3.14959 43.5742 2.58375C44.0772 2.0322 44.9042 1.57538 46.2143 1.57538C47.017 1.57538 47.7225 1.78841 48.2321 2.00599C48.4857 2.11428 48.6871 2.22213 48.8232 2.30158C48.8911 2.34125 48.9424 2.37364 48.9754 2.39521C48.9802 2.39831 48.9845 2.40118 48.9885 2.40381L48.8899 2.56437L48.7965 2.71642L48.7401 2.68148C48.6924 2.65197 48.6291 2.61315 48.5529 2.56858C48.4009 2.47961 48.1972 2.36726 47.9596 2.2568C47.4941 2.04049 46.8559 1.81117 46.1998 1.81117C45.122 1.81117 44.3568 2.16598 43.8633 2.69166C43.3811 3.20528 43.1982 3.84005 43.1982 4.3414C43.1982 5.10573 43.4926 5.7197 43.9995 6.21996C44.4884 6.70243 45.169 7.07412 45.9459 7.40533L45.9459 7.40535L45.9501 7.40714C47.172 7.91469 48.1041 8.37667 48.7335 8.94421C49.3337 9.48551 49.6618 10.1254 49.6618 11.05C49.6618 12.6029 48.1843 13.8748 46.2432 13.8748ZM42.97 12.1619C42.97 12.1619 42.97 12.1619 42.97 12.1619L42.5995 11.8887L42.97 12.1619Z" fill="#534B3B" stroke="#534B3B"/>
<path d="M56.429 12.9479V13.4479H56.929H61.9961V13.6837H56.0264V1.76675H56.429V12.9479Z" fill="#534B3B" stroke="#534B3B"/>
<path d="M72.5605 1.57538C75.9043 1.57538 78.5964 4.31368 78.5964 7.73983C78.5964 11.1616 75.9086 13.8601 72.5605 13.8601C69.2153 13.8601 66.5535 11.1645 66.5535 7.73983C66.5535 4.31075 69.2195 1.57538 72.5605 1.57538ZM72.5605 13.5655C75.7187 13.5655 78.3239 10.939 78.3239 7.73983C78.3239 4.5469 75.7394 1.87002 72.5605 1.87002C69.378 1.87002 66.8259 4.55054 66.8259 7.73983C66.8259 10.9354 69.3987 13.5655 72.5605 13.5655Z" fill="#534B3B" stroke="#534B3B"/>
<path d="M94.9513 11.2192L97.3955 1.76654H97.8365L94.4947 13.86H94.4507L91.3582 4.01492L91.2482 3.66476H90.8811H90.7944H90.4253L90.3166 4.01744L87.2818 13.86H87.2384L83.8684 1.76654H84.3094L86.7971 11.2212L86.8951 11.594H87.2806H87.3529H87.7219L87.8307 11.2414L90.8076 1.59H90.8833L93.9179 11.244L94.028 11.594H94.3949H94.4672H94.8544L94.9513 11.2192Z" fill="#534B3B" stroke="#534B3B"/>
<path d="M52.4385 21.5995C51.4312 20.7519 50.073 20.1715 48.7304 20.1715C45.5599 20.1715 43.1694 22.8847 43.1694 25.9825C43.1694 29.0821 45.5616 31.7787 48.7304 31.7787C50.4442 31.7787 51.4754 31.0718 52.4436 30.3392L52.7126 30.5841C51.6008 31.6358 50.2108 32.1322 48.7594 32.1322C45.4098 32.1322 42.709 29.4322 42.709 26.0119C42.709 22.5872 45.4142 19.8474 48.7594 19.8474H49.2135C50.6157 19.9403 51.6782 20.469 52.7055 21.3279L52.4385 21.5995ZM52.2875 21.7566C52.2875 21.7566 52.2877 21.7563 52.2882 21.7558L52.2875 21.7566Z" fill="#534B3B" stroke="#534B3B"/>
<path d="M57.8568 31.9409H57.4971L62.8432 19.892L68.1612 31.9409H67.8005L66.4964 28.9877L66.3648 28.6896H66.039H59.6043H59.2771L59.1461 28.9895L57.8568 31.9409ZM62.9051 19.7528C62.9051 19.7528 62.9049 19.7532 62.9045 19.7539L62.9045 19.7539C62.9049 19.7531 62.9051 19.7528 62.9051 19.7528ZM65.5619 28.5421H66.3315L66.0187 27.8389C65.5124 26.7006 65.018 25.5639 64.5241 24.4281C64.1419 23.5495 63.7601 22.6715 63.3732 21.7939L63.2417 21.4956H62.9157H62.7711H62.4441L62.313 21.7951L59.6668 27.8417L59.3603 28.5421H60.1249H65.5619Z" fill="#534B3B" stroke="#534B3B"/>
<path d="M79.4363 25.4482L78.579 25.9508L79.4935 26.3396C80.381 26.717 81.3582 27.4817 81.3582 28.8807C81.3582 29.7808 81.01 30.5349 80.4216 31.0682C79.83 31.6044 78.9682 31.9409 77.9106 31.9409H73.928V20.024H77.7515C79.7225 20.024 80.9677 21.2901 80.9677 22.9224C80.9677 24.1177 80.1898 25.0064 79.4363 25.4482ZM74.7583 26.1004H74.2583V26.6004V31.2052V31.7052H74.7583H78.0552C79.678 31.7052 80.8399 30.4496 80.8399 28.866C80.8399 27.1926 79.3509 26.1004 77.7515 26.1004H74.7583ZM74.8017 20.3039H74.3017V20.8039V25.3204V25.8204H74.8017H77.7515C78.5823 25.8204 79.2662 25.5151 79.7368 24.982C80.2004 24.4569 80.4205 23.7534 80.4205 23.0107C80.4205 22.2641 80.1942 21.5798 79.7198 21.0782C79.2416 20.5726 78.5595 20.3039 77.7515 20.3039H74.8017Z" fill="#534B3B" stroke="#534B3B"/>
<path d="M87.9832 31.9409V20.024H88.4002V31.9409H87.9832Z" fill="#534B3B" stroke="#534B3B"/>
<path d="M95.8062 20.1711H95.8206V19.8327H95.8735L103.908 30.0143L104.058 30.2046H104.3H104.329H104.829V29.7046V20.0093H105.16V32.0374L97.0438 21.7304L96.8936 21.5397H96.6509H96.6365H96.1365V22.0397V31.9262H95.8062V20.1711Z" fill="#534B3B" stroke="#534B3B"/>
<path d="M115.188 32.1322C113.261 32.1322 111.922 30.9671 111.692 30.7607C111.691 30.7603 111.691 30.7599 111.691 30.7595L111.687 30.7565C111.716 30.7187 111.748 30.6791 111.783 30.6345L111.786 30.6312C111.831 30.5754 111.882 30.5113 111.93 30.4458C112.092 30.5914 112.428 30.8777 112.88 31.1537C113.468 31.5133 114.294 31.8817 115.232 31.8817C116.92 31.8817 118.161 30.7753 118.161 29.3515C118.161 28.5375 117.803 27.8996 117.183 27.3667C116.586 26.8548 115.73 26.4223 114.678 25.9795C113.688 25.5411 112.972 25.1443 112.498 24.641C112.047 24.1626 111.784 23.5552 111.784 22.6135C111.784 22.1046 111.989 21.4069 112.505 20.8411C113.008 20.2896 113.835 19.8327 115.145 19.8327C115.948 19.8327 116.657 20.0459 117.171 20.2638C117.427 20.3723 117.63 20.4803 117.768 20.5599C117.837 20.5997 117.889 20.6322 117.922 20.6538C117.926 20.6565 117.93 20.659 117.934 20.6614L117.835 20.8217L117.742 20.9738L117.685 20.9388C117.638 20.9093 117.574 20.8705 117.498 20.8259C117.346 20.737 117.143 20.6246 116.905 20.5142C116.439 20.2978 115.801 20.0685 115.145 20.0685C114.067 20.0685 113.302 20.4233 112.809 20.949C112.326 21.4626 112.144 22.0974 112.144 22.5988C112.144 23.3631 112.438 23.9771 112.945 24.4773C113.434 24.9598 114.114 25.3315 114.891 25.6627L114.891 25.6627L114.895 25.6645C116.117 26.172 117.049 26.634 117.679 27.2016C118.279 27.7429 118.607 28.3827 118.607 29.3073C118.607 30.8603 117.13 32.1322 115.188 32.1322ZM111.901 30.4192C111.901 30.4192 111.901 30.4192 111.901 30.4192L111.533 30.1479L111.901 30.4192Z" fill="#534B3B" stroke="#534B3B"/>
<path d="M7.00475 28.6747V28.9268L7.20734 29.0767C9.67516 30.9027 12.685 31.9847 16.0072 31.9847C19.329 31.9847 22.4128 30.8882 24.8975 29.0151L25.0965 28.8651V28.6159V21.6425V21.4063L24.914 21.2563L16.4694 14.3123L16.1552 14.054L15.8384 14.309L7.19127 21.2677L7.00475 21.4178V21.6572V28.6747ZM5.66822 27.7694L6.51536 28.5866V27.4095V21.1465L16.1481 13.4011L25.5714 21.1576V27.336V27.3507V28.5451L26.4223 27.7069C29.2469 24.9243 31.0106 21.0313 31.0106 16.7287C31.0106 8.31011 24.2731 1.4581 15.9928 1.4581C7.71214 1.4581 0.989381 8.31044 0.989381 16.714C0.989381 21.0618 2.78299 24.986 5.66822 27.7694ZM31.5 16.7287C31.5 21.656 29.1054 26.1953 25.5984 29.0947C22.988 31.1492 19.5542 32.5 16.0072 32.5C12.4589 32.5 9.06786 31.1777 6.44336 29.1228C2.8951 26.2243 0.5 21.686 0.5 16.714C0.5 8.0078 7.45641 0.94278 15.9928 0.94278C24.5294 0.94278 31.5 8.0081 31.5 16.7287Z" fill="#534B3B" stroke="#534B3B"/>
</svg>
